<?xml version="1.0" encoding="iso-8859-1"?>
<!-- Generator: Adobe Illustrator 19.0.0, SVG Export Plug-In . SVG Version: 6.00 Build 0)  -->
<svg version="1.1" id="Layer_1" xmlns="http://www.w3.org/2000/svg" xmlns:xlink="http://www.w3.org/1999/xlink" x="0px" y="0px"
	 viewBox="0 0 472.615 472.615" style="enable-background:new 0 0 472.615 472.615;" xml:space="preserve">
<g>
	<g>
		<path d="M452.923,392.339h-28.106v-225.54h38.925L236.308,0L8.873,166.799h38.92v225.54H19.692C8.816,392.339,0,401.154,0,412.031
			v60.584h472.615v-60.584C472.615,401.154,463.799,392.339,452.923,392.339z M119.26,392.339H67.486v-225.54h51.774V392.339z
			 M190.726,392.339h-51.774v-225.54h51.774V392.339z M262.192,392.339h-51.774v-225.54h51.774V392.339z M236.308,127.94
			c-16.767,0-30.359-13.467-30.359-30.077c0-16.61,13.592-30.079,30.359-30.079s30.359,13.469,30.359,30.079
			C266.666,114.473,253.075,127.94,236.308,127.94z M333.659,392.339h-51.774v-225.54h51.774V392.339z M405.125,392.339h-51.774
			v-225.54h51.774V392.339z"/>
	</g>
</g>
<g>
</g>
<g>
</g>
<g>
</g>
<g>
</g>
<g>
</g>
<g>
</g>
<g>
</g>
<g>
</g>
<g>
</g>
<g>
</g>
<g>
</g>
<g>
</g>
<g>
</g>
<g>
</g>
<g>
</g>
</svg>
